<?xml version="1.0" encoding="utf-8"?>
<!-- Generator: Adobe Illustrator 27.0.0, SVG Export Plug-In . SVG Version: 6.00 Build 0)  -->
<svg version="1.1" id="Layer_1" xmlns="http://www.w3.org/2000/svg" xmlns:xlink="http://www.w3.org/1999/xlink" x="0px" y="0px"
	 viewBox="0 0 1920 418.52" style="enable-background:new 0 0 1920 418.52;" xml:space="preserve">
<style type="text/css">
	.st0{fill:#636466;}
</style>
<g>
	<g>
		<path class="st0" d="M132.42,418.52H0V38.01h132.42v38.05h33.1v38.05h33.1v38.05h33.1V38.01h132.42v380.51H231.73V304.37h-33.1
			v-38.05h-33.1v-38.05h-33.1V418.52z"/>
		<path class="st0" d="M728.28,418.52H430.34v-38.05h-33.1V76.06h33.1V38.01h297.94v38.05h33.1v304.41h-33.1V418.52z M628.97,190.21
			v-76.1h-99.31v228.3h99.31v-76.1V190.21z"/>
		<path class="st0" d="M926.9,418.52H794.48V38.01H926.9h99.31h99.31v38.05h33.1v114.15h-33.1v76.1h33.1v152.2h-132.42v-152.2H926.9
			V418.52z M926.9,190.21h99.31v-76.1H926.9V190.21z"/>
		<path class="st0" d="M1191.72,38.01h331.04v76.1h-99.31v228.3h99.31v76.1h-331.04v-76.1h99.31v-228.3h-99.31V38.01z"/>
		<path class="st0" d="M1853.79,418.52h-297.94V38.01h198.62h33.1h66.21v38.05h33.1v38.05h33.1v228.3h-33.1v38.05h-33.1V418.52z
			 M1754.48,114.11h-66.21v228.3h66.21v-38.05h33.1v-152.2h-33.1V114.11z"/>
	</g>
	<g>
		<path d="M132.42,380.51H0V0h132.42v38.05h33.1V76.1h33.1v38.05h33.1V0h132.42v380.51H231.73V266.35h-33.1V228.3h-33.1v-38.05
			h-33.1V380.51z"/>
		<path d="M728.28,380.51H430.34v-38.05h-33.1V38.05h33.1V0h297.94v38.05h33.1v304.41h-33.1V380.51z M628.97,152.2V76.1h-99.31
			v228.3h99.31v-76.1V152.2z"/>
		<path d="M926.9,380.51H794.48V0H926.9h99.31h99.31v38.05h33.1V152.2h-33.1v76.1h33.1v152.2h-132.42V228.3H926.9V380.51z
			 M926.9,152.2h99.31V76.1H926.9V152.2z"/>
		<path d="M1191.72,0h331.04v76.1h-99.31v228.3h99.31v76.1h-331.04v-76.1h99.31V76.1h-99.31V0z"/>
		<path d="M1853.79,380.51h-297.94V0h198.62h33.1h66.21v38.05h33.1V76.1h33.1v228.3h-33.1v38.05h-33.1V380.51z M1754.48,76.1h-66.21
			v228.3h66.21v-38.05h33.1v-152.2h-33.1V76.1z"/>
	</g>
</g>
</svg>
